{
  "asset": {
    "version": "2.0",
    "generator": "THREE.GLTFExporter"
  },
  "scenes": [
    {
      "name": "Scene",
      "nodes": [
        0,
        1,
        16
      ]
    }
  ],
  "scene": 0,
  "nodes": [
    {
      "name": "AmbientLight"
    },
    {
      "matrix": [
        1,
        0,
        0,
        0,
        0,
        1,
        0,
        0,
        0,
        0,
        1,
        0,
        5,
        10,
        7.5,
        1
      ],
      "name": "DirectionalLight",
      "extensions": {
        "KHR_lights_punctual": {
          "light": 0
        }
      }
    },
    {
      "name": "AmbientLight",
      "extras": {
        "name": "AmbientLight"
      }
    },
    {
      "matrix": [
        1,
        0,
        0,
        0,
        0,
        1,
        0,
        0,
        0,
        0,
        1,
        0,
        0,
        0,
        -1,
        1
      ]
    },
    {
      "matrix": [
        1,
        0,
        0,
        0,
        0,
        1,
        0,
        0,
        0,
        0,
        1,
        0,
        5,
        10,
        7.5,
        1
      ],
      "name": "DirectionalLight",
      "extras": {
        "name": "DirectionalLight"
      },
      "children": [
        3
      ],
      "extensions": {
        "KHR_lights_punctual": {
          "light": 1
        }
      }
    },
    {
      "matrix": [
        1,
        0,
        0,
        0,
        0,
        1,
        0,
        0,
        0,
        0,
        1,
        0,
        0,
        0,
        -1,
        1
      ]
    },
    {
      "matrix": [
        1,
        0,
        0,
        0,
        0,
        1,
        0,
        0,
        0,
        0,
        1,
        0,
        0,
        0,
        -1,
        1
      ]
    },
    {
      "matrix": [
        1,
        0,
        0,
        0,
        0,
        1,
        0,
        0,
        0,
        0,
        1,
        0,
        5,
        10,
        7.5,
        1
      ],
      "name": "DirectionalLight_2",
      "extras": {
        "name": "DirectionalLight"
      },
      "children": [
        5,
        6
      ],
      "extensions": {
        "KHR_lights_punctual": {
          "light": 2
        }
      }
    },
    {
      "name": "buffer-0-mesh-0_0",
      "extras": {
        "name": "buffer-0-mesh-0_0"
      },
      "mesh": 0
    },
    {
      "name": "buffer-0-mesh-0_1_1",
      "extras": {
        "name": "buffer-0-mesh-0_1_1"
      },
      "mesh": 1
    },
    {
      "name": "node-0",
      "extras": {
        "name": "node-0"
      },
      "children": [
        8,
        9
      ]
    },
    {
      "matrix": [
        1,
        0,
        0,
        0,
        0,
        1,
        0,
        0,
        0,
        0,
        1,
        0,
        33.28457029911651,
        -18.16099693049609,
        -5.174576493178848,
        1
      ],
      "children": [
        10
      ]
    },
    {
      "matrix": [
        1,
        0,
        0,
        0,
        0,
        1,
        0,
        0,
        0,
        0,
        1,
        0,
        0,
        18.16099693049609,
        0,
        1
      ],
      "extras": {
        "isTransformNode": 1
      },
      "children": [
        11
      ]
    },
    {
      "children": [
        12
      ]
    },
    {
      "matrix": [
        0.01,
        0,
        0,
        0,
        0,
        0.01,
        0,
        0,
        0,
        0,
        0.01,
        0,
        0,
        0,
        0,
        1
      ],
      "name": "scene-0",
      "extras": {
        "name": "scene-0",
        "GOOGLE_camera_index": {
          "cameraIndex": 0,
          "nodeIndex": 4
        },
        "GOOGLE_geometry_data": {
          "stats": {
            "centroid": [
              -33.18069908787188,
              16.75066115333588,
              6.080986047884128
            ],
            "radius": 30.5116274374433,
            "stdev": 16.88856763409642
          },
          "visualCenterPoint": [
            -33.28457029911651,
            18.16099693049609,
            5.174576493178848
          ]
        },
        "gltfExtensions": {
          "GOOGLE_backgrounds": {
            "color": [
              0.9803921568627451,
              0.9803921568627451,
              0.9803921568627451
            ]
          },
          "GOOGLE_camera_settings": {
            "mode": "movableOrbit",
            "pivot": [
              -33.28430499134529,
              18.16070256679782,
              5.174106343323352
            ]
          },
          "GOOGLE_lights_image_based": {
            "light": 0
          }
        }
      },
      "children": [
        13
      ]
    },
    {
      "name": "1glb",
      "extras": {
        "name": "1.glb"
      },
      "children": [
        7,
        14
      ]
    },
    {
      "name": "chair.glb",
      "children": [
        2,
        4,
        15
      ]
    }
  ],
  "extensions": {
    "KHR_lights_punctual": {
      "lights": [
        {
          "name": "DirectionalLight",
          "color": [
            1,
            1,
            1
          ],
          "intensity": 1,
          "type": "directional"
        },
        {
          "name": "DirectionalLight",
          "color": [
            1,
            1,
            1
          ],
          "intensity": 1,
          "type": "directional"
        },
        {
          "name": "DirectionalLight_2",
          "color": [
            1,
            1,
            1
          ],
          "intensity": 1,
          "type": "directional"
        }
      ]
    }
  },
  "bufferViews": [
    {
      "buffer": 0,
      "byteOffset": 0,
      "byteLength": 2688,
      "target": 34962,
      "byteStride": 12
    },
    {
      "buffer": 0,
      "byteOffset": 2688,
      "byteLength": 2688,
      "target": 34962,
      "byteStride": 12
    },
    {
      "buffer": 0,
      "byteOffset": 5376,
      "byteLength": 1792,
      "target": 34962,
      "byteStride": 8
    },
    {
      "buffer": 0,
      "byteOffset": 7168,
      "byteLength": 720,
      "target": 34963
    },
    {
      "buffer": 0,
      "byteOffset": 7888,
      "byteLength": 211896,
      "target": 34962,
      "byteStride": 12
    },
    {
      "buffer": 0,
      "byteOffset": 219784,
      "byteLength": 211896,
      "target": 34962,
      "byteStride": 12
    },
    {
      "buffer": 0,
      "byteOffset": 431680,
      "byteLength": 141264,
      "target": 34962,
      "byteStride": 8
    },
    {
      "buffer": 0,
      "byteOffset": 572944,
      "byteLength": 190380,
      "target": 34963
    }
  ],
  "buffers": [
    {
      "byteLength": 763324,
      "uri": "data:application/octet-stream;base64,"
    }
  ],
  "accessors": [
    {
      "bufferView": 0,
      "componentType": 5126,
      "count": 224,
      "max": [
        1,
        1,
        0.9581723809242249
      ],
      "min": [
        -1,
        -1,
        -0.9982043504714966
      ],
      "type": "VEC3"
    },
    {
      "bufferView": 1,
      "componentType": 5126,
      "count": 224,
      "max": [
        -18.243200302124023,
        6.372700214385986,
        22.30590057373047
      ],
      "min": [
        -48.42789840698242,
        -0.005499999970197678,
        -8.827400207519531
      ],
      "type": "VEC3"
    },
    {
      "bufferView": 2,
      "componentType": 5126,
      "count": 224,
      "max": [
        19422048270942210,
        0
      ],
      "min": [
        19422048270942210,
        0
      ],
      "type": "VEC2"
    },
    {
      "bufferView": 3,
      "componentType": 5123,
      "count": 360,
      "max": [
        223
      ],
      "min": [
        0
      ],
      "type": "SCALAR"
    },
    {
      "bufferView": 4,
      "componentType": 5126,
      "count": 17658,
      "max": [
        1,
        1,
        1
      ],
      "min": [
        -1,
        -0.9999746680259705,
        -0.9999998211860657
      ],
      "type": "VEC3"
    },
    {
      "bufferView": 5,
      "componentType": 5126,
      "count": 17658,
      "max": [
        -16.885000228881836,
        32.28990173339844,
        22.340299606323242
      ],
      "min": [
        -49.59600067138672,
        6.102799892425537,
        -12.127900123596191
      ],
      "type": "VEC3"
    },
    {
      "bufferView": 6,
      "componentType": 5126,
      "count": 17658,
      "max": [
        27593687408050176,
        11.78689956665039
      ],
      "min": [
        -16.12969970703125,
        -10.52649974822998
      ],
      "type": "VEC2"
    },
    {
      "bufferView": 7,
      "componentType": 5123,
      "count": 95190,
      "max": [
        17657
      ],
      "min": [
        0
      ],
      "type": "SCALAR"
    }
  ],
  "materials": [
    {
      "pbrMetallicRoughness": {
        "baseColorFactor": [
          0.5879999995231628,
          0.5879999995231628,
          0.5879999995231628,
          1
        ],
        "metallicFactor": 1,
        "roughnessFactor": 0
      },
      "doubleSided": true,
      "name": "fal001a"
    },
    {
      "pbrMetallicRoughness": {
        "baseColorFactor": [
          0.250980406999588,
          0.3764705955982208,
          0.5490196347236633,
          1
        ],
        "metallicFactor": 0,
        "roughnessFactor": 0.9699476361274719
      },
      "doubleSided": true,
      "name": "fal001b"
    }
  ],
  "meshes": [
    {
      "primitives": [
        {
          "mode": 4,
          "attributes": {
            "NORMAL": 0,
            "POSITION": 1,
            "TEXCOORD_0": 2
          },
          "indices": 3,
          "material": 0
        }
      ]
    },
    {
      "primitives": [
        {
          "mode": 4,
          "attributes": {
            "NORMAL": 4,
            "POSITION": 5,
            "TEXCOORD_0": 6
          },
          "indices": 7,
          "material": 1
        }
      ]
    }
  ],
  "extensionsUsed": [
    "KHR_lights_punctual"
  ]
}